<?xml version="1.0" encoding="utf-8"?>
<!-- Generator: Adobe Illustrator 24.2.3, SVG Export Plug-In . SVG Version: 6.00 Build 0)  -->
<svg version="1.1" id="Layer_1" xmlns="http://www.w3.org/2000/svg" xmlns:xlink="http://www.w3.org/1999/xlink" x="0px" y="0px"
	 viewBox="0 0 401.61 315.28" style="enable-background:new 0 0 401.61 315.28;" xml:space="preserve">
<style type="text/css">
	.st0{fill:url(#SVGID_1_);}
	.st1{fill:url(#SVGID_2_);}
	.st2{fill:url(#SVGID_3_);}
	.st3{fill:url(#SVGID_4_);}
	.st4{fill:url(#SVGID_5_);}
	.st5{fill:url(#SVGID_6_);}
	.st6{fill:url(#SVGID_7_);}
	.st7{fill:url(#SVGID_8_);}
	.st8{fill:url(#SVGID_9_);}
	.st9{fill:url(#SVGID_10_);}
	.st10{fill:url(#SVGID_11_);}
	.st11{fill:url(#SVGID_12_);}
	.st12{fill:url(#SVGID_13_);}
	.st13{fill:url(#SVGID_14_);}
	.st14{fill:url(#SVGID_15_);}
	.st15{fill:url(#SVGID_16_);}
	.st16{fill:url(#SVGID_17_);}
	.st17{fill:url(#SVGID_18_);}
	.st18{fill:url(#SVGID_19_);}
	.st19{fill:url(#SVGID_20_);}
	.st20{fill:url(#SVGID_21_);}
	.st21{fill:url(#SVGID_22_);}
	.st22{fill:url(#SVGID_23_);}
	.st23{fill:url(#SVGID_24_);}
	.st24{fill:url(#SVGID_25_);}
	.st25{fill:url(#SVGID_26_);}
	.st26{fill:url(#SVGID_27_);}
	.st27{fill:url(#SVGID_28_);}
	.st28{fill:url(#SVGID_29_);}
	.st29{fill:url(#SVGID_30_);}
	.st30{fill:#FFFFFF;}
	.st31{fill:url(#SVGID_31_);}
	.st32{fill:url(#SVGID_32_);}
	.st33{fill:url(#SVGID_33_);}
	.st34{fill:url(#SVGID_34_);}
	.st35{fill:url(#SVGID_35_);}
	.st36{fill:url(#SVGID_36_);}
	.st37{fill:url(#SVGID_37_);}
	.st38{fill:url(#SVGID_38_);}
	.st39{fill:url(#SVGID_39_);}
	.st40{fill:url(#SVGID_40_);}
	.st41{fill:url(#SVGID_41_);}
	.st42{fill:url(#SVGID_42_);}
	.st43{fill:url(#SVGID_43_);}
	.st44{fill:url(#SVGID_44_);}
	.st45{fill:url(#SVGID_45_);}
	.st46{fill:url(#SVGID_46_);}
	.st47{fill:url(#SVGID_47_);}
	.st48{fill:url(#SVGID_48_);}
	.st49{fill:url(#SVGID_49_);}
	.st50{fill:url(#SVGID_50_);}
	.st51{fill:url(#SVGID_51_);}
	.st52{fill:url(#SVGID_52_);}
	.st53{fill:url(#SVGID_53_);}
	.st54{fill:url(#SVGID_54_);}
	.st55{fill:url(#SVGID_55_);}
	.st56{fill:url(#SVGID_56_);}
	.st57{fill:url(#SVGID_57_);}
	.st58{fill:url(#SVGID_58_);}
	.st59{fill:url(#SVGID_59_);}
	.st60{fill:url(#SVGID_60_);}
	.st61{fill:#111942;}
	.st62{fill:url(#SVGID_61_);}
	.st63{fill:url(#SVGID_62_);}
	.st64{fill:url(#SVGID_63_);}
	.st65{fill:url(#SVGID_64_);}
	.st66{fill:url(#SVGID_65_);}
	.st67{fill:url(#SVGID_66_);}
	.st68{fill:url(#SVGID_67_);}
	.st69{fill:url(#SVGID_68_);}
	.st70{fill:url(#SVGID_69_);}
	.st71{fill:url(#SVGID_70_);}
	.st72{fill:url(#SVGID_71_);}
	.st73{fill:url(#SVGID_72_);}
	.st74{fill:url(#SVGID_73_);}
	.st75{fill:url(#SVGID_74_);}
	.st76{fill:url(#SVGID_75_);}
	.st77{fill:url(#SVGID_76_);}
	.st78{fill:url(#SVGID_77_);}
	.st79{fill:url(#SVGID_78_);}
	.st80{fill:url(#SVGID_79_);}
	.st81{fill:url(#SVGID_80_);}
	.st82{fill:url(#SVGID_81_);}
	.st83{fill:url(#SVGID_82_);}
	.st84{fill:url(#SVGID_83_);}
	.st85{fill:url(#SVGID_84_);}
	.st86{fill:url(#SVGID_85_);}
	.st87{fill:url(#SVGID_86_);}
	.st88{fill:url(#SVGID_87_);}
	.st89{fill:url(#SVGID_88_);}
	.st90{fill:url(#SVGID_89_);}
	.st91{fill:url(#SVGID_90_);}
</style>
<g>
	<g>
		<linearGradient id="SVGID_1_" gradientUnits="userSpaceOnUse" x1="163.1045" y1="30.7706" x2="163.1045" y2="296.4884">
			<stop  offset="0" style="stop-color:#01FDFD"/>
			<stop  offset="0.3" style="stop-color:#018BEC"/>
			<stop  offset="1" style="stop-color:#F702A8"/>
		</linearGradient>
		<path class="st0" d="M281.49,41.38c-2.25-6.42-8.25-10.61-15.01-10.61H99.02c-30.46,0-55.22,24.5-55.22,54.82v49.44
			c0,4.18,1.8,8.22,4.8,11.2c2.85,2.99,7.05,4.63,11.25,4.63l79.38,0.07l-11.82,13.32l-67.56,0.05c-4.2,0-8.4,1.64-11.25,4.63
			c-3,2.99-4.8,7.02-4.8,11.2v49.3c0,30.47,24.76,54.97,55.37,55.12l73.86-0.02c4.2,0,8.4-1.79,11.4-4.78
			c2.85-2.99,4.65-7.02,4.65-11.2v-45.11c0-4.33-1.8-8.37-4.65-11.35c-3-2.99-7.2-4.63-11.4-4.63l-50.6,0.02v-11.35h2.79l0.03-0.04
			h9.35c4.58,0,8.98-1.96,11.99-5.36l40.09-45.15c4.17-4.73,5.21-11.42,2.61-17.13c-2.55-5.65-8.28-9.34-14.6-9.34h-26v-0.06h-26.25
			V107.7h88.08c3.75,0,7.2-1.2,10.05-3.58L276.54,59C281.79,54.82,283.74,47.65,281.49,41.38z M157.13,239.28v13.3l-57.96,0.02
			c-12.9,0-23.26-10.31-23.26-23.15v-33.31h14.56v27.34c0,4.18,1.8,8.22,4.65,11.2c3,2.99,7.2,4.63,11.4,4.63L157.13,239.28z
			 M204.81,75.88h-98.29c-4.2,0-8.4,1.64-11.4,4.63c-2.85,2.99-4.65,7.02-4.65,11.35v27.19H75.91V85.59
			c0-12.7,10.35-23.01,23.11-23.01h122.3L204.81,75.88z"/>
		<linearGradient id="SVGID_2_" gradientUnits="userSpaceOnUse" x1="280.9306" y1="30.7706" x2="280.9306" y2="296.4884">
			<stop  offset="0" style="stop-color:#01FDFD"/>
			<stop  offset="0.3" style="stop-color:#018BEC"/>
			<stop  offset="1" style="stop-color:#F702A8"/>
		</linearGradient>
		<path class="st1" d="M348.87,32.41c-5.49-2.69-11.98-2.04-16.82,1.68l-45.38,34.84l-0.06,0.05l-46.76,36.27
			c-5.37,4.17-7.51,11.32-5.29,17.73c2.21,6.41,8.32,10.75,15.13,10.75h30.76l0,73.74l-60.39-0.02c-4.21,0-8.33,1.7-11.31,4.66
			c-2.98,2.96-4.68,7.07-4.68,11.26v45.17c0,4.19,1.71,8.29,4.68,11.26c2.98,2.96,7.1,4.66,11.31,4.66l46.13,0.02
			c25.28-0.01,45.73-20.19,46.17-45.25c25.17-0.44,45.45-20.8,45.46-45.96V46.7C357.81,40.61,354.36,35.1,348.87,32.41z
			 M266.18,252.65l-30.14-0.02V239.3l44.22,0.02C279.78,246.74,273.74,252.64,266.18,252.65z M325.82,193.28
			c-0.01,7.53-5.94,13.53-13.39,14.02l-0.1-105.48h-16.02l29.5-22.73V193.28z"/>
	</g>
	<linearGradient id="SVGID_3_" gradientUnits="userSpaceOnUse" x1="262.5205" y1="64.0378" x2="200.5248" y2="40.9797">
		<stop  offset="0" style="stop-color:#000000"/>
		<stop  offset="1.587331e-03" style="stop-color:#000000;stop-opacity:0.9984"/>
		<stop  offset="1" style="stop-color:#000000;stop-opacity:0"/>
	</linearGradient>
	<path class="st2" d="M239.64,47.78l-18.31,14.76h-25.33l-34.18-31.83h71.73C242.66,30.71,246.71,42.07,239.64,47.78z"/>
	<linearGradient id="SVGID_4_" gradientUnits="userSpaceOnUse" x1="45.8751" y1="36.7721" x2="72.9425" y2="94.0371">
		<stop  offset="0" style="stop-color:#000000"/>
		<stop  offset="1.587331e-03" style="stop-color:#000000;stop-opacity:0.9984"/>
		<stop  offset="1" style="stop-color:#000000;stop-opacity:0"/>
	</linearGradient>
	<path class="st3" d="M99,62.54C86.25,62.6,75.88,72.86,75.83,85.61v33.5H43.85V93.85c0-17.3,14.08-31.31,31.45-31.31H99z"/>
	
		<linearGradient id="SVGID_5_" gradientUnits="userSpaceOnUse" x1="126.6682" y1="-4174.3315" x2="126.6682" y2="-4214.9204" gradientTransform="matrix(1 0 0 -1 0 -3999.4058)">
		<stop  offset="0" style="stop-color:#000000"/>
		<stop  offset="1.587331e-03" style="stop-color:#000000;stop-opacity:0.9984"/>
		<stop  offset="1" style="stop-color:#000000;stop-opacity:0"/>
	</linearGradient>
	<path class="st4" d="M106.49,239.32c-4.21,0-8.33-1.7-11.31-4.66c-2.98-2.97-4.68-7.07-4.68-11.26V196.1h31.99v11.37l40.36-0.02
		l-11.25,31.85L106.49,239.32z"/>
	<linearGradient id="SVGID_6_" gradientUnits="userSpaceOnUse" x1="46.6718" y1="263.9551" x2="69.1449" y2="228.7719">
		<stop  offset="0" style="stop-color:#000000"/>
		<stop  offset="1.587331e-03" style="stop-color:#000000;stop-opacity:0.9984"/>
		<stop  offset="1" style="stop-color:#000000;stop-opacity:0"/>
	</linearGradient>
	<path class="st5" d="M97.03,252.67H73.34c-16.28,0-29.48-13.15-29.48-29.35v-22.49h31.98v30.74
		C75.88,243.21,85.33,252.61,97.03,252.67z"/>
	<linearGradient id="SVGID_7_" gradientUnits="userSpaceOnUse" x1="119.4648" y1="142.3776" x2="119.4648" y2="101.7888">
		<stop  offset="0" style="stop-color:#000000"/>
		<stop  offset="1.587331e-03" style="stop-color:#000000;stop-opacity:0.9984"/>
		<stop  offset="1" style="stop-color:#000000;stop-opacity:0"/>
	</linearGradient>
	<path class="st6" d="M106.44,75.87c-4.21,0-8.33,1.7-11.31,4.66c-2.98,2.97-4.68,7.07-4.68,11.26v27.29h31.99v-11.37h26.04
		l-11.25-31.85H106.44z"/>
	<linearGradient id="SVGID_8_" gradientUnits="userSpaceOnUse" x1="103.3056" y1="53.2718" x2="149.2219" y2="89.9713">
		<stop  offset="0" style="stop-color:#000000"/>
		<stop  offset="1.587331e-03" style="stop-color:#000000;stop-opacity:0.9984"/>
		<stop  offset="1" style="stop-color:#000000;stop-opacity:0"/>
	</linearGradient>
	<path class="st7" d="M180.76,76.03l-57.77,0c-0.32,0-0.57,0.26-0.57,0.57v31.09h58.34V76.03z"/>
	<linearGradient id="SVGID_9_" gradientUnits="userSpaceOnUse" x1="288.5087" y1="220.7853" x2="288.3247" y2="261.5508">
		<stop  offset="0" style="stop-color:#000000"/>
		<stop  offset="1.587331e-03" style="stop-color:#000000;stop-opacity:0.9984"/>
		<stop  offset="1" style="stop-color:#000000;stop-opacity:0"/>
	</linearGradient>
	<path class="st8" d="M311.46,239.32h-31.3c-0.49,7.41-6.53,13.31-14.07,13.33l-1.53-0.02c4.03,4.02,4.63,8.72,8.78,12.64
		c2.89,2.73,5.73,5.56,8.66,8.24c1.3,1.19,2.85,2.11,4.08,3.39c0.63,0.66,1.23,1.41,1.88,2.11c14.25-7.66,23.99-22.56,24.29-39.77
		C311.98,239.25,311.73,239.32,311.46,239.32z"/>
	<linearGradient id="SVGID_10_" gradientUnits="userSpaceOnUse" x1="296.449" y1="233.7135" x2="296.449" y2="172.457">
		<stop  offset="0" style="stop-color:#000000"/>
		<stop  offset="1.587331e-03" style="stop-color:#000000;stop-opacity:0.9984"/>
		<stop  offset="1" style="stop-color:#000000;stop-opacity:0"/>
	</linearGradient>
	<path class="st9" d="M312.44,156.37v50.91c-0.23,0.12-0.46,0.17-0.75,0.17h-31.22v-51.09H312.44z"/>
	<linearGradient id="SVGID_11_" gradientUnits="userSpaceOnUse" x1="360.6141" y1="55.2094" x2="293.5157" y2="78.9156">
		<stop  offset="0" style="stop-color:#000000"/>
		<stop  offset="1.587331e-03" style="stop-color:#000000;stop-opacity:0.9984"/>
		<stop  offset="1" style="stop-color:#000000;stop-opacity:0"/>
	</linearGradient>
	<path class="st10" d="M325.82,59.72V79.1l-25.89,19.89L273.57,79.1L286.6,69l19.58-15.05l3.07-2.36c0,0,0.06,0,0.06-0.06
		C316.09,46.4,325.82,51.19,325.82,59.72z"/>
	<linearGradient id="SVGID_12_" gradientUnits="userSpaceOnUse" x1="313.7251" y1="110.4316" x2="293.5953" y2="157.2701">
		<stop  offset="0" style="stop-color:#000000"/>
		<stop  offset="1.587331e-03" style="stop-color:#000000;stop-opacity:0.9984"/>
		<stop  offset="1" style="stop-color:#000000;stop-opacity:0"/>
	</linearGradient>
	<path class="st11" d="M312.44,167.69H280.4v-33.98l31.45,0c0.32,0,0.58,0.26,0.58,0.58V167.69z"/>
	<linearGradient id="SVGID_13_" gradientUnits="userSpaceOnUse" x1="210.3987" y1="220.0666" x2="259.2948" y2="223.6789">
		<stop  offset="0" style="stop-color:#000000"/>
		<stop  offset="1.587331e-03" style="stop-color:#000000;stop-opacity:0.9984"/>
		<stop  offset="1" style="stop-color:#000000;stop-opacity:0"/>
	</linearGradient>
	<path class="st12" d="M274.33,207.46l-36.09-0.03c-1.22,0-2.2,0.98-2.2,2.19v29.68l38.29,0.02V207.46z"/>
	<linearGradient id="SVGID_14_" gradientUnits="userSpaceOnUse" x1="171.7661" y1="220.5852" x2="172.8304" y2="257.8361">
		<stop  offset="0" style="stop-color:#000000"/>
		<stop  offset="1.587331e-03" style="stop-color:#000000;stop-opacity:0.9984"/>
		<stop  offset="1" style="stop-color:#000000;stop-opacity:0"/>
	</linearGradient>
	<path class="st13" d="M189.09,250.64v17.93c0,4.18-1.8,8.22-4.65,11.2c-3,2.99-7.2,4.78-11.4,4.78h-15.91v-45.26h20.56
		C183.99,239.28,189.09,244.36,189.09,250.64z"/>
	<linearGradient id="SVGID_15_" gradientUnits="userSpaceOnUse" x1="179.8453" y1="158.6341" x2="119.5896" y2="131.4636">
		<stop  offset="0" style="stop-color:#000000"/>
		<stop  offset="1.587331e-03" style="stop-color:#000000;stop-opacity:0.9984"/>
		<stop  offset="1" style="stop-color:#000000;stop-opacity:0"/>
	</linearGradient>
	<path class="st14" d="M152.86,135.62l-13.61,15.34h-31.8v-31.83h37.94C153.96,119.12,158.54,129.21,152.86,135.62z"/>
</g>
</svg>
