<svg xmlns="http://www.w3.org/2000/svg" viewBox="0 0 1080 1080"><defs><style>.cls-1{fill:#008dff;}.cls-2{fill:#0e0d30;}</style></defs><title>50</title><g id="L_3"><path class="cls-1" d="M558.2,735.41a174.68,174.68,0,0,1-33.56-3.24v35.46a208.4,208.4,0,0,0,67.12,0V732.17A174.75,174.75,0,0,1,558.2,735.41Z"/><path class="cls-1" d="M558.2,389.7a174.75,174.75,0,0,1,33.56,3.24V357.49a207.64,207.64,0,0,0-67.12,0v35.45A174.68,174.68,0,0,1,558.2,389.7Z"/><path class="cls-1" d="M680.42,440.33a175.56,175.56,0,0,1,20.18,24.18l25-25a209.77,209.77,0,0,0-48-47l-25.07,25.07A173.57,173.57,0,0,1,680.42,440.33Z"/><path class="cls-1" d="M436,684.78a174.45,174.45,0,0,1-22.67-27.89L388.23,682a209.77,209.77,0,0,0,47,48l25-25A175.56,175.56,0,0,1,436,684.78Z"/><path class="cls-1" d="M762.75,525.89H727.17A175.4,175.4,0,0,1,728.39,593h35.36a208.66,208.66,0,0,0-1-67.12Z"/><path class="cls-1" d="M385.34,562.56a174.5,174.5,0,0,1,3.89-36.67H353.65a209.08,209.08,0,0,0-1,67.12H388A174.75,174.75,0,0,1,385.34,562.56Z"/><path class="cls-1" d="M436,440.33a174.08,174.08,0,0,1,27.9-22.67L438.8,392.59a209.37,209.37,0,0,0-48,47l25,25A174.77,174.77,0,0,1,436,440.33Z"/><path class="cls-1" d="M680.42,684.78A175,175,0,0,1,656.24,705l25,25a209.52,209.52,0,0,0,46.95-48l-25.07-25.07A174.45,174.45,0,0,1,680.42,684.78Z"/></g><g id="l_2"><g id="L_2-2" data-name="L_2"><path class="cls-1" d="M464.64,513.35,415.8,464.51a170.85,170.85,0,0,0-26.57,61.38H459A103.07,103.07,0,0,1,464.64,513.35Z"/><path class="cls-1" d="M524.64,462.28V392.94a170.87,170.87,0,0,0-60.77,24.72l49.26,49.26A106,106,0,0,1,524.64,462.28Z"/><path class="cls-1" d="M456.94,593H388a170.9,170.9,0,0,0,25.29,63.88l49.26-49.26A105.61,105.61,0,0,1,456.94,593Z"/><path class="cls-1" d="M591.76,662.83v69.34A170.84,170.84,0,0,0,656.24,705l-48.83-48.84A105.32,105.32,0,0,1,591.76,662.83Z"/><path class="cls-1" d="M651.76,513.35a106.24,106.24,0,0,1,5.62,12.54h69.79a171,171,0,0,0-26.57-61.38Z"/><path class="cls-1" d="M653.83,607.63l49.26,49.26A170.75,170.75,0,0,0,728.39,593H659.46A105.65,105.65,0,0,1,653.83,607.63Z"/><path class="cls-1" d="M509,656.12,460.15,705a170.88,170.88,0,0,0,64.49,27.21V662.83A104.87,104.87,0,0,1,509,656.12Z"/><path class="cls-1" d="M603.27,466.92l49.26-49.26a170.94,170.94,0,0,0-60.77-24.72v69.34A107.64,107.64,0,0,1,603.27,466.92Z"/></g></g><g id="base"><circle class="cls-2" cx="558.2" cy="562.56" r="147.26"/><path class="cls-1" d="M491.89,527.68l-34.61-34.61a121.25,121.25,0,0,0-18.83,43.5h49.46A75.48,75.48,0,0,1,491.89,527.68Z"/><path class="cls-1" d="M534.42,491.49V442.35a121.16,121.16,0,0,0-43.07,17.52l34.91,34.91A74.35,74.35,0,0,1,534.42,491.49Z"/><path class="cls-1" d="M486.44,584.14H437.59a121,121,0,0,0,17.92,45.27l34.91-34.91A74.37,74.37,0,0,1,486.44,584.14Z"/><path class="cls-1" d="M582,633.62v49.14a121,121,0,0,0,45.7-19.29l-34.61-34.61A74.21,74.21,0,0,1,582,633.62Z"/><path class="cls-1" d="M624.51,527.68a73.82,73.82,0,0,1,4,8.89h49.46a121.06,121.06,0,0,0-18.82-43.5Z"/><path class="cls-1" d="M626,594.5l34.91,34.91a121.05,121.05,0,0,0,17.93-45.27H630A74.41,74.41,0,0,1,626,594.5Z"/><path class="cls-1" d="M523.32,628.86l-34.61,34.61a121,121,0,0,0,45.71,19.29V633.62A74.33,74.33,0,0,1,523.32,628.86Z"/><path class="cls-1" d="M590.14,494.78l34.91-34.91A121.23,121.23,0,0,0,582,442.35v49.14A74.35,74.35,0,0,1,590.14,494.78Z"/><path class="cls-1" d="M558.2,685.06a123.45,123.45,0,0,1-23.78-2.3v25.13a147.46,147.46,0,0,0,47.56,0V682.76A123.53,123.53,0,0,1,558.2,685.06Z"/><path class="cls-1" d="M558.2,440.06A124.32,124.32,0,0,1,582,442.35V417.23a147.46,147.46,0,0,0-47.56,0v25.12A124.25,124.25,0,0,1,558.2,440.06Z"/><path class="cls-1" d="M644.82,475.94a124,124,0,0,1,14.3,17.13l17.69-17.69a148.66,148.66,0,0,0-34-33.27l-17.77,17.76A123.58,123.58,0,0,1,644.82,475.94Z"/><path class="cls-1" d="M471.58,649.18a123.58,123.58,0,0,1-16.07-19.77l-17.76,17.76a148.46,148.46,0,0,0,33.27,34l17.69-17.69A123.76,123.76,0,0,1,471.58,649.18Z"/><path class="cls-1" d="M703.16,536.57H677.94a123.93,123.93,0,0,1,.87,47.57h25.06a147.65,147.65,0,0,0-.71-47.57Z"/><path class="cls-1" d="M435.7,562.56a124,124,0,0,1,2.75-26H413.23a148.42,148.42,0,0,0-.71,47.57h25.07A123.69,123.69,0,0,1,435.7,562.56Z"/><path class="cls-1" d="M471.58,475.94a123.14,123.14,0,0,1,19.77-16.07l-17.77-17.76a148.66,148.66,0,0,0-34,33.27l17.69,17.69A124,124,0,0,1,471.58,475.94Z"/><path class="cls-1" d="M644.82,649.18a123.26,123.26,0,0,1-17.14,14.29l17.69,17.69a148.29,148.29,0,0,0,33.28-34l-17.77-17.76A123.51,123.51,0,0,1,644.82,649.18Z"/><path class="cls-1" d="M558.2,660.57a98,98,0,1,1,98-98A98.12,98.12,0,0,1,558.2,660.57Zm0-186.51a88.5,88.5,0,1,0,88.5,88.5A88.6,88.6,0,0,0,558.2,474.06Z"/><path class="cls-1" d="M565.41,604.51H548.7m0,0-3.1,7.74H533l18.45-43.64H563l18.45,43.64H568.57l-3.16-7.74m-.1.14-8.19-21.8-8.32,21.8"/><rect class="cls-1" x="530.99" y="599.88" width="53.43" height="5.21"/><rect class="cls-1" x="531.43" y="590.75" width="53.43" height="5.21"/><path class="cls-1" d="M553.84,537.51c-3.6,6.77-11.52,6.58-13.49,6.58a16.11,16.11,0,0,1-9.22-2.35,11.51,11.51,0,0,1-3.26-3.46,16.34,16.34,0,0,1-1.58-5l9.79-1a9.34,9.34,0,0,0,.19,2.3,4,4,0,0,0,4.18,2.83c3,0,4.89-2.06,4.89-5.13-.05-3.22-2-5.09-5-5.09a5,5,0,0,0-3.07.91,3.77,3.77,0,0,0-1,1.2l-8.26-1,1.88-17.86h24.43l-.67,6.87h-16.8l-.44,4.61a9.09,9.09,0,0,1,1.3-.63,15.8,15.8,0,0,1,10,0,10.61,10.61,0,0,1,7.63,10.28A12.15,12.15,0,0,1,553.84,537.51Z"/><path class="cls-1" d="M581.78,540.06a15.08,15.08,0,0,1-16,2.88,13.41,13.41,0,0,1-6-5.67,20,20,0,0,1-2.25-10A23.09,23.09,0,0,1,560,516.53a13.66,13.66,0,0,1,6-5.66,14.74,14.74,0,0,1,6.48-1.2,13.1,13.1,0,0,1,8.4,2.78c2.5,2,5.52,6.34,5.52,14C586.43,533.43,583.74,537.94,581.78,540.06Zm-5.33-17.67a13.48,13.48,0,0,0-.91-3.94,3.82,3.82,0,0,0-3.46-2.25,4.08,4.08,0,0,0-2.83,1.29,6,6,0,0,0-.82,1.3c-1.06,2.3-1.15,6.62-1.15,9.12,0,2.16.09,5.33,1.15,7.25a4.09,4.09,0,0,0,3.5,2.16,3.92,3.92,0,0,0,2.93-1.49c1.11-1.44,1.83-4.37,1.83-8.64C576.69,525.61,576.59,524,576.45,522.39Z"/></g><g id="numero"><path class="cls-1" d="M536.77,631.14V615.58h12.32V619H541.7v2.31h6.9v3.38h-6.92v3.08h8.07v3.37Z"/><path class="cls-1" d="M555.71,631.14v-10l-.42.16a12.09,12.09,0,0,1-2.82.22v-3.42a4.75,4.75,0,0,0,2.77-.57,3.38,3.38,0,0,0,.71-.66,3.57,3.57,0,0,0,.38-.82h3.92v15.14Z"/><path class="cls-1" d="M574.65,631.14l-3-5.49H570.2v5.49h-4.94V615.58h8.42a12,12,0,0,1,1.34.07,4.65,4.65,0,0,1,3.8,2.12,5.65,5.65,0,0,1,.72,2.79,4.21,4.21,0,0,1-1.83,3.66,6.27,6.27,0,0,1-1.36.64l3.81,6.28Zm-.33-11.59a1.46,1.46,0,0,0-.46-.4,3.35,3.35,0,0,0-1.66-.31h-2v3.62h2c.9,0,1.92-.11,2.27-1.13a2.65,2.65,0,0,0,.11-.68A2.12,2.12,0,0,0,574.32,619.55Z"/></g></svg>