<svg xmlns="http://www.w3.org/2000/svg" viewBox="0 0 1080 1080"><defs><style>.cls-1{fill:#008dff;}.cls-2{fill:#0e0d30;}</style></defs><title>nft</title><g id="L_3"><path class="cls-1" d="M540.27,712.58a174.75,174.75,0,0,1-33.56-3.24V744.8a208.4,208.4,0,0,0,67.12,0V709.34A174.68,174.68,0,0,1,540.27,712.58Z"/><path class="cls-1" d="M540.27,366.87a174.68,174.68,0,0,1,33.56,3.24V334.66a208.4,208.4,0,0,0-67.12,0v35.45A174.75,174.75,0,0,1,540.27,366.87Z"/><path class="cls-1" d="M662.5,417.5a174.77,174.77,0,0,1,20.17,24.18l25-25a209.37,209.37,0,0,0-48-47l-25.06,25.07A174.45,174.45,0,0,1,662.5,417.5Z"/><path class="cls-1" d="M418.05,662a174,174,0,0,1-22.67-27.89l-25.07,25.07a209.36,209.36,0,0,0,47,48l25-25A175,175,0,0,1,418.05,662Z"/><path class="cls-1" d="M744.83,503.06H709.24a174.87,174.87,0,0,1,1.22,67.12h35.37a208.66,208.66,0,0,0-1-67.12Z"/><path class="cls-1" d="M367.42,539.73a174.49,174.49,0,0,1,3.88-36.67H335.72a208.66,208.66,0,0,0-1,67.12h35.36A174.75,174.75,0,0,1,367.42,539.73Z"/><path class="cls-1" d="M418.05,417.5a174.45,174.45,0,0,1,27.89-22.67l-25.07-25.07a209.77,209.77,0,0,0-48,47l25,25A175.56,175.56,0,0,1,418.05,417.5Z"/><path class="cls-1" d="M662.5,662a175.56,175.56,0,0,1-24.18,20.18l25,25a209.77,209.77,0,0,0,47-48l-25.07-25.07A174,174,0,0,1,662.5,662Z"/></g><g id="l_2"><g id="L_2-2" data-name="L_2"><path class="cls-1" d="M446.71,490.52l-48.84-48.84a171,171,0,0,0-26.57,61.38h69.79A106.24,106.24,0,0,1,446.71,490.52Z"/><path class="cls-1" d="M506.71,439.45V370.11a170.94,170.94,0,0,0-60.77,24.72l49.26,49.26A107.64,107.64,0,0,1,506.71,439.45Z"/><path class="cls-1" d="M439,570.18H370.08a170.92,170.92,0,0,0,25.3,63.88l49.26-49.26A105.65,105.65,0,0,1,439,570.18Z"/><path class="cls-1" d="M573.83,640v69.34a170.88,170.88,0,0,0,64.49-27.21l-48.84-48.84A104.43,104.43,0,0,1,573.83,640Z"/><path class="cls-1" d="M633.84,490.52a104.57,104.57,0,0,1,5.61,12.54h69.79a170.67,170.67,0,0,0-26.57-61.38Z"/><path class="cls-1" d="M635.91,584.8l49.26,49.26a170.9,170.9,0,0,0,25.29-63.88H641.53A105.61,105.61,0,0,1,635.91,584.8Z"/><path class="cls-1" d="M491.06,633.29l-48.83,48.84a170.84,170.84,0,0,0,64.48,27.21V640A105.32,105.32,0,0,1,491.06,633.29Z"/><path class="cls-1" d="M585.34,444.09l49.27-49.26a171,171,0,0,0-60.78-24.72v69.34A106,106,0,0,1,585.34,444.09Z"/></g></g><g id="base"><circle class="cls-2" cx="540.27" cy="539.73" r="147.26"/><path class="cls-1" d="M474,504.85l-34.61-34.61a120.9,120.9,0,0,0-18.83,43.5H470A73.87,73.87,0,0,1,474,504.85Z"/><path class="cls-1" d="M516.49,468.66V419.52A121.23,121.23,0,0,0,473.42,437L508.33,472A74.35,74.35,0,0,1,516.49,468.66Z"/><path class="cls-1" d="M468.51,561.31H419.66a121.05,121.05,0,0,0,17.93,45.27l34.91-34.91A74.41,74.41,0,0,1,468.51,561.31Z"/><path class="cls-1" d="M564.06,610.79v49.14a121,121,0,0,0,45.7-19.29L575.15,606A74.66,74.66,0,0,1,564.06,610.79Z"/><path class="cls-1" d="M606.58,504.85a75.48,75.48,0,0,1,4,8.89H660a121.25,121.25,0,0,0-18.83-43.5Z"/><path class="cls-1" d="M608.05,571.67,643,606.58a121,121,0,0,0,17.92-45.27H612A74.37,74.37,0,0,1,608.05,571.67Z"/><path class="cls-1" d="M505.4,606l-34.61,34.61a121,121,0,0,0,45.7,19.29V610.79A74.21,74.21,0,0,1,505.4,606Z"/><path class="cls-1" d="M572.21,472,607.13,437a121.31,121.31,0,0,0-43.07-17.52v49.14A75,75,0,0,1,572.21,472Z"/><path class="cls-1" d="M540.27,662.23a123.53,123.53,0,0,1-23.78-2.3v25.13a147.53,147.53,0,0,0,47.57,0V659.93A123.63,123.63,0,0,1,540.27,662.23Z"/><path class="cls-1" d="M540.27,417.23a124.43,124.43,0,0,1,23.79,2.29V394.4a147.53,147.53,0,0,0-47.57,0v25.12A124.32,124.32,0,0,1,540.27,417.23Z"/><path class="cls-1" d="M626.89,453.11a124,124,0,0,1,14.3,17.13l17.69-17.69a148.66,148.66,0,0,0-34-33.27L607.13,437A123.51,123.51,0,0,1,626.89,453.11Z"/><path class="cls-1" d="M453.65,626.35a123.51,123.51,0,0,1-16.06-19.77l-17.77,17.77a148.45,148.45,0,0,0,33.28,34l17.69-17.69A123.26,123.26,0,0,1,453.65,626.35Z"/><path class="cls-1" d="M685.24,513.74H660a124.17,124.17,0,0,1,.86,47.57H686a148.42,148.42,0,0,0-.71-47.57Z"/><path class="cls-1" d="M417.77,539.73a123.36,123.36,0,0,1,2.76-26H395.31a147.65,147.65,0,0,0-.71,47.57h25.06A123.69,123.69,0,0,1,417.77,539.73Z"/><path class="cls-1" d="M453.65,453.11A123.58,123.58,0,0,1,473.42,437l-17.77-17.76a148.41,148.41,0,0,0-34,33.27l17.69,17.69A123.18,123.18,0,0,1,453.65,453.11Z"/><path class="cls-1" d="M626.89,626.35a123.18,123.18,0,0,1-17.13,14.29l17.69,17.69a148.41,148.41,0,0,0,33.27-34L643,606.58A123.58,123.58,0,0,1,626.89,626.35Z"/><path class="cls-1" d="M540.27,637.74a98,98,0,1,1,98-98A98.12,98.12,0,0,1,540.27,637.74Zm0-186.51a88.5,88.5,0,1,0,88.5,88.5A88.6,88.6,0,0,0,540.27,451.23Z"/><path class="cls-1" d="M556.64,560.65h-32m0,0-5.92,14.8H494.61L529.89,492H552l35.27,83.46H562.68l-6-14.8m-.2.27-15.66-41.7-15.9,41.7"/><rect class="cls-1" x="490.82" y="551.79" width="102.17" height="9.97"/><rect class="cls-1" x="491.65" y="534.34" width="102.17" height="9.97"/></g><g id="numero"><path class="cls-1" d="M518.84,598.23V582.67h12.32v3.41h-7.38v2.32h6.9v3.37h-6.92v3.09h8.06v3.37Z"/><path class="cls-1" d="M537.78,598.23V588.18c-.13,0-.26.11-.42.15a11.55,11.55,0,0,1-2.82.22v-3.41a4.73,4.73,0,0,0,2.78-.58,3.25,3.25,0,0,0,.7-.66,2.79,2.79,0,0,0,.38-.81h3.92v15.14Z"/><path class="cls-1" d="M556.72,598.23l-3-5.49h-1.43v5.49h-4.94V582.67h8.43c.43,0,.9,0,1.34.06a4.69,4.69,0,0,1,3.79,2.12,5.64,5.64,0,0,1,.73,2.8,4.24,4.24,0,0,1-1.83,3.66,6.41,6.41,0,0,1-1.37.64l3.81,6.28Zm-.33-11.6a1.3,1.3,0,0,0-.46-.39,3.23,3.23,0,0,0-1.65-.31h-2v3.61h2.05c.91,0,1.92-.11,2.27-1.12a2.83,2.83,0,0,0,.11-.68A2.13,2.13,0,0,0,556.39,586.63Z"/></g></svg>